# xmcd
#
# Track frame offsets: 
#        150
#        12855
#        21545
#        33953
#        44363
#        58271
#        70166
#        82086
#        95558
#        114198
#        127290
#        141310
#        159210
#        171768
#        183891
#        197101
#        210618
#        223370
#
# Disc length: 3197 seconds
#
# Revision: 0
# Processed by: cddbd v1.5.2PL0 Copyright (c) Steve Scherf et al.
# Submitted via: ExactAudioCopy v1.0b3
#
DISCID=0c0c7b12
DTITLE=Various Artist - Imagine The Blues CD5
DYEAR=2011
DGENRE=Blues
TTITLE0=John Lee Hooker - Hobo Blues
TTITLE1=Sonny Boy Williamson - Checkin'up On My Baby
TTITLE2=Roosevelt Sykes - Stompin' The Boogie
TTITLE3=B.B. King - Talkin' The Blues
TTITLE4=Muddy Waters - Close To You
TTITLE5=Buddy Guy - Ten Years Ago
TTITLE6=Jimmy Reed - Sugar Sugar
TTITLE7=Memphis Slim - Pinetop's Blues
TTITLE8=John Lee Hooker - One Of These Days
TTITLE9=Howlin' Wolf - Evil
TTITLE10=Lightnin’ Hopkins - The War Is Over
TTITLE11=Champion Jack Dupree - Stack-O-Lee
TTITLE12=Elmore James - Cry For My Baby
TTITLE13=Muddy Waters - Trouble No More
TTITLE14=B.B. King - Questionnaire Blues
TTITLE15=Arthur "Big Boy" Crudup - Never No More
TTITLE16=Jimmy Rogers - That's All Right
TTITLE17=Leadbelly - Irene Goodnight
EXTD=
EXTT0=
EXTT1=
EXTT2=
EXTT3=
EXTT4=
EXTT5=
EXTT6=
EXTT7=
EXTT8=
EXTT9=
EXTT10=
EXTT11=
EXTT12=
EXTT13=
EXTT14=
EXTT15=
EXTT16=
EXTT17=
PLAYORDER=
